<svg id="Layer_1" data-name="Layer 1" xmlns="http://www.w3.org/2000/svg" viewBox="0 0 907.4 979.953">
  <defs>
    <style>
      .cls-1 {
        fill: #fff;
      }
    </style>
  </defs>
  <title>24-payment</title>
  <g>
    <path class="cls-1" d="M775.8,176.1a28.242,28.242,0,1,0-34.4,44.8c99,75.9,155.8,190.8,155.8,315.3,0,219-178.2,397.2-397.2,397.2S102.8,755.2,102.8,536.2c0-211.3,166.7-384.6,375.4-396.1v43.1a28.213,28.213,0,0,0,28.2,28.2,29.069,29.069,0,0,0,13.7-3.5L651,135.4A28.193,28.193,0,0,0,651,86L520.1,13.6a28.251,28.251,0,0,0-41.9,24.7V83.2C238.3,94.7,46.3,293.9,46.3,536.3,46.3,786.5,249.8,990,500,990S953.7,786.5,953.7,536.3C953.7,394.1,888.9,262.8,775.8,176.1ZM534.7,86.3l44.4,24.6-44.4,24.6Z" transform="translate(-46.3 -10.047)"/>
    <path class="cls-1" d="M310.8,553.7q-59.85,42.6-75.9,80.9a173.727,173.727,0,0,0-16.3,56.3c-1.2,10.3,7.1,18.8,17.5,18.8h224a18.778,18.778,0,0,0,18.8-18.8V662.4a18.778,18.778,0,0,0-18.8-18.8H331c-10.4,0-15.8-5.3-10.9-11.1a79.926,79.926,0,0,1,9.6-9.7c6.9-6,19.8-15.6,38.6-29l30.1-21.3c25.3-17.9,43.6-34.2,54.7-48.8q25.35-33,25.3-75.4,0-55.35-35.9-88.9-35.85-33.6-96.5-33.6-76.8,0-106.8,57.2-12.6,24-16.4,60c-1.1,10.3,7.1,18.8,17.5,18.8h35.3c10.4,0,19-8.5,20.3-18.8,1.4-12.1,3.8-21.4,7-28.1,8.3-17,23.8-25.6,46.6-25.6,16.7,0,29.5,5.4,38.5,16.1s13.4,24.1,13.4,40.3c0,19.9-7.8,38.1-23.5,54.8Q362.75,516.55,310.8,553.7Z" transform="translate(-46.3 -10.047)"/>
    <path class="cls-1" d="M720.7,330H674c-10.4,0-23.2,7.2-28.6,16.1l-121,199.7c-5.4,8.9-9.8,24.5-9.8,35v27.9a18.778,18.778,0,0,0,18.8,18.8H647a18.778,18.778,0,0,1,18.8,18.8v44.5a18.842,18.842,0,0,0,18.8,18.8h35.8a18.778,18.778,0,0,0,18.8-18.8V646.3A18.778,18.778,0,0,1,758,627.5h5.6a18.778,18.778,0,0,0,18.8-18.8V587.6a18.842,18.842,0,0,0-18.8-18.8h-5.5A18.778,18.778,0,0,1,739.3,550V348.9A18.506,18.506,0,0,0,720.7,330ZM666,549.9a18.778,18.778,0,0,1-18.8,18.8H589.5c-10.4,0-14.6-7.3-9.4-16.3l76.5-132c5.2-9,9.5-7.9,9.5,2.5v127Z" transform="translate(-46.3 -10.047)"/>
  </g>
</svg>
