<svg xmlns="http://www.w3.org/2000/svg" viewBox="0 0 163.778 226.558">
  <defs>
    <style>
      .cls-1 {
        fill: #fff;
      }
    </style>
  </defs>
  <title>2Asset 1</title>
  <g id="Layer_2" data-name="Layer 2">
    <g id="Layer_1-2" data-name="Layer 1">
      <path id="BTC_alt" data-name="BTC alt" class="cls-1" d="M151.371,112.576c-7.3-5.5-17.7-7.7-17.7-7.7s8.8-5.1,12.4-10.2,5.4-13,5.7-17.1,1-21.3-12.4-31.193c-10.364-7.658-22.241-10.7-38.19-11.687V0h-21.4V34.292h-16.3V0H42.092V34.292H0V56.511H12.372c3.373,0,9.372.375,11.921,3.228s3,4.349,3,9.9,0,86.435,0,88.535-.4,4.7-2.2,6.4-3.6,2.1-7.9,2.1H4.4L0,192.363H42.092v34.195h21.4V192.363h16.3v34.195h21.4V191.8c5.531-.323,10.688-.742,13.7-1.136,6.1-.8,19.9-2.4,32.8-11.4s15.793-23.1,16.094-37.294S158.664,118.075,151.371,112.576ZM63.486,58.488s6.8-.6,13.5-.5,12.6.3,21.4,3,13.992,9.3,14.2,17.1-3.2,13-9.2,16.3-14.292,5.1-22.094,5.4-17.8,0-17.8,0Zm47.89,102.279c-4.9,2.7-14.7,5.1-24.194,5.8s-23.7.4-23.7.4V121.073s13.6-.7,24.2,0,19.495,3.4,23.492,5.4,11,6.4,11,16.9S116.272,158.068,111.376,160.767Z"/>
    </g>
  </g>
</svg>
