<?xml version="1.0" encoding="utf-8"?>
<!-- Generator: Adobe Illustrator 23.0.6, SVG Export Plug-In . SVG Version: 6.00 Build 0)  -->
<svg version="1.1" id="Layer_1" xmlns="http://www.w3.org/2000/svg" xmlns:xlink="http://www.w3.org/1999/xlink" x="0px" y="0px"
	 viewBox="0 0 949.9 981.2" style="enable-background:new 0 0 949.9 981.2;" xml:space="preserve">
<style type="text/css">
	.st0{fill:#FFFFFF;stroke:url(#SVGID_1_);stroke-miterlimit:10;}
	.st1{fill:none;stroke:url(#SVGID_2_);stroke-miterlimit:10;}
</style>
<title>cashout</title>
<linearGradient id="SVGID_1_" gradientUnits="userSpaceOnUse" x1="25.0622" y1="479.9872" x2="974.9379" y2="479.9872" gradientTransform="matrix(1 0 0 -1 -25.062 970.5848)">
	<stop  offset="0" style="stop-color:#E8A423"/>
	<stop  offset="2.200000e-02" style="stop-color:#E9A721"/>
	<stop  offset="0.254" style="stop-color:#F3C113"/>
	<stop  offset="0.492" style="stop-color:#FAD408"/>
	<stop  offset="0.737" style="stop-color:#FEDF02"/>
	<stop  offset="1" style="stop-color:#FFE300"/>
</linearGradient>
<path class="st0" d="M745.6,458v343H204.2V458H1.2L474.9,0.7L948.6,458H745.6z M114,412.3h135.3v343h451.2v-343h135.3l-360.9-343
	L114,412.3z M745.6,889.5H204.2v-45.6h541.4V889.5z M745.6,980.7H204.2v-45.6h541.4V980.7z"/>
<g id="Layer_1-2-2">
	
		<linearGradient id="SVGID_2_" gradientUnits="userSpaceOnUse" x1="365.871" y1="479.8878" x2="662.6904" y2="479.8878" gradientTransform="matrix(1 0 0 -1 -25.062 970.5848)">
		<stop  offset="0" style="stop-color:#E8A423"/>
		<stop  offset="2.200000e-02" style="stop-color:#E9A721"/>
		<stop  offset="0.254" style="stop-color:#F3C113"/>
		<stop  offset="0.492" style="stop-color:#FAD408"/>
		<stop  offset="0.737" style="stop-color:#FEDF02"/>
		<stop  offset="1" style="stop-color:#FFE300"/>
	</linearGradient>
	<path class="st1" d="M633.9,525c-3.7-8.2-8.7-15.6-15-22c-10.5-10.3-23.5-17.6-37.7-21.1c13.4-7.2,24.5-18.1,31.9-31.4
		c8-18.1,7.9-38.9-0.5-56.9c-3.8-8.3-8.9-16-15.1-22.7c-11.1-9.9-24.9-16.3-39.6-18.2c-11.5-1.2-23.1-1.7-34.6-1.4v-46.9h-37v46.8
		h-32.5v-46.8h-37.6v47.8l-74.8-0.8v41.9c10-0.7,20.1-0.5,30.1,0.4c8.6,1.5,15.5,7.4,17.7,15.2c0.7,5.6,0.8,11.3,0.2,17v143.9
		c-0.4,9.6-7.9,17.6-18.1,19.3c-3.3,0.8-29.9,0.7-29.9,0.6v41.3h75V677h38.5v-46.2h30.1V677h38.5v-46c20.1,0.2,40.1-2.1,59.6-6.9
		c23.1-6.2,41.2-22.9,47.9-44.3C635.3,563.7,640.7,540.6,633.9,525z M515.4,392c22.9,0,31.1,32.8,26.1,51c-2.5,9.8-8.4,18.3-16.7,24
		c-6.5,3.1-13.8,4.2-20.9,3.1h-49.6V392L515.4,392z M563,548.3c-1.3,20.5-18.1,37.3-40.2,40.1c-14.4,0.9-28.9,1-43.3,0.3h-25.2
		v-80.8h45.3c20.9,0,42.9,0,56.2,19.7C560.3,533.5,562.8,540.7,563,548.3L563,548.3z"/>
</g>
</svg>
