<?xml version="1.0" encoding="utf-8"?>
<!-- Generator: Adobe Illustrator 23.0.6, SVG Export Plug-In . SVG Version: 6.00 Build 0)  -->
<svg version="1.1" id="Layer_1" xmlns="http://www.w3.org/2000/svg" xmlns:xlink="http://www.w3.org/1999/xlink" x="0px" y="0px"
	 viewBox="0 0 980 645.5" style="enable-background:new 0 0 980 645.5;" xml:space="preserve">
<style type="text/css">
	.st0{fill:#FFFFFF;}
	.st1{fill:#231F20;}
</style>
<title>hashbazaar-unpaid</title>
<path class="st0" d="M976.7,409.2c-9.8-47.3-38.1-92.2-76.4-120.9c-15.2-11.5-41.6-25.6-57-30.3l-10.9-3.5l-1.2-19.7
	c-1.6-23.2-5.5-45.7-11.3-63.7C791.7,86.8,719.3,22.2,632.2,4.4C620.4,2,594,0,577.8,0c-3.6-0.1-7.1,0.1-10.7,0.5
	c-27.3,3.7-37.7,5.9-54.9,11.5c-58,18.9-107.8,59.4-139,112.9l-7.6,12.9l-7.4-5.1c-51.5-35-122.1-27.7-167,17.2
	c-25.4,25.4-40.6,61.1-41,95.7v9.2l-9.4,2.1c-14.6,3.7-43.5,18.8-60.5,31.4c-35.9,27.1-60.7,63.1-74,107.4
	c-6.6,22.8-8.4,62.3-3.7,85.9c8.6,42,24.4,72.1,54.7,103.1c26.2,27,56.2,44.7,94.5,55.7l15,4.3l316.9,0.6
	c73.8,0.1,130.4,0.2,174.2,0.2c136.9,0,147.5-0.7,160.7-3.5c38.3-7.8,70.9-25,99.4-52.5c27.7-26.6,44.7-54.7,55.5-91.2
	C980.8,473.1,982.1,435.6,976.7,409.2z M947.9,435.7c-0.2-4.2-0.4-8.3-0.8-12.3C947.5,427.4,947.7,431.5,947.9,435.7z M799.9,255.7
	c-0.2,2.6-0.3,4.8-0.3,6.9C799.6,260.6,799.8,258.3,799.9,255.7c0.2-2.4,0.3-5.1,0.3-7.8C800.2,250.7,800.1,253.3,799.9,255.7z
	 M338.7,157.1c-0.9-0.6-1.8-1.2-2.7-1.7C336.9,155.9,337.8,156.5,338.7,157.1z M343.2,160.2c-0.7-0.5-1.5-1.1-2.2-1.6
	C341.7,159.1,342.5,159.7,343.2,160.2z M310.9,144.9c1,0.2,1.9,0.5,2.8,0.8C312.8,145.4,311.8,145.1,310.9,144.9
	c-1.5-0.4-3-0.7-4.5-1C307.9,144.2,309.4,144.5,310.9,144.9z M332,153c-1.5-0.8-3.1-1.6-4.7-2.4C328.9,151.4,330.4,152.2,332,153z
	 M324.4,149.4c-0.5-0.2-1-0.4-1.5-0.6C323.5,149,324,149.2,324.4,149.4z M292,142.1c-1.7-0.1-3.3-0.2-5-0.2
	C288.7,141.9,290.4,142,292,142.1z M114.5,301.7c1.4-0.8,2.8-1.5,4.2-2.3s2.8-1.4,4.2-2.1c2.8-1.4,5.7-2.7,8.7-3.9
	c1.5-0.6,3-1.2,4.5-1.8c-1.5,0.6-3,1.2-4.5,1.8c-3,1.2-5.9,2.5-8.7,3.9c-1.4,0.7-2.8,1.4-4.2,2.1S115.8,300.9,114.5,301.7
	c-1.4,0.8-2.8,1.6-4.1,2.4C111.7,303.2,113.1,302.4,114.5,301.7z M102.1,309.4c-2.1,1.4-4.1,2.9-6.2,4.4
	C98,312.2,100,310.8,102.1,309.4z M31.9,448.5c0,2.1,0,4.3,0.1,6.4C31.9,452.7,31.9,450.6,31.9,448.5z M32,458
	c0.1,4.2,0.3,8.2,0.7,12C32.3,466.2,32.1,462.1,32,458z M34.7,485.2c-0.3-1.4-0.6-3-0.8-4.6C34.1,482.3,34.4,483.8,34.7,485.2
	s0.6,2.8,1,4C35.3,488,35,486.7,34.7,485.2z M94.2,579.2c1.4,1.2,2.9,2.3,4.4,3.4C97.1,581.5,95.7,580.4,94.2,579.2z M105.3,587.4
	c1.5,1,3,2,4.6,2.9C108.3,589.4,106.8,588.4,105.3,587.4z M112.2,591.8c1.6,0.9,3.2,1.8,4.8,2.7
	C115.4,593.6,113.8,592.7,112.2,591.8z M121.9,597c1.7,0.8,3.4,1.6,5.1,2.4C125.3,598.7,123.6,597.9,121.9,597z M590.8,614.2
	c2.7,0,5.4,0,8.1,0C596.2,614.2,593.6,614.2,590.8,614.2z"/>
<rect x="432.7" y="201.3" class="st1" width="220.4" height="22.2"/>
<g>
	<path d="M625.7,205c2.3-7.8,3.6-16.1,3.6-24.7c0-47.7-38.7-86.5-86.5-86.5s-86.5,38.7-86.5,86.5c0,8.5,1.2,16.6,3.5,24.3
		C515,205.3,571.1,202.1,625.7,205z"/>
	<path class="st0" d="M537,183.3l12.6,4.8c5.8,2.2,11.9,4.6,13.5,11.4c0.3,1.2,0.5,2.8,0.4,4.3c7.1,0,14.1,0,21.2,0
		c-0.3-1.5-0.8-3-1.4-4.4c-1.8-3.9-4.7-7.3-8.3-9.8c0,0,8.2-1,12.2-5.2c0,0,7-6.6,5.8-15.6c-0.2-2.7-0.8-5.3-1.8-7.8
		c-1.9-4-5.3-7-9.1-9.2c-0.8-0.4-9.3-4.4-9.5-4.1l4.9-12.8l-10.3-4l-4.9,12.8l-9-3.5l4.9-12.8l-10.4-4l-5,13.1l-20.7-8.2l-4.4,11.4
		c0.1-0.3,7.6,2.9,8.3,3.3c2,1.3,3.6,3.6,3.3,6c-0.4,1.6-1,3.2-1.7,4.7l-15.1,39.3c-1.1,2.9-4.2,3.7-7.1,3.3c-1-0.1-8.4-3-8.4-3
		l-4.3,11.1c12-0.1,24.1-0.3,36.2-0.5L537,183.3z M549.2,151.7l17,6.5c6.4,2.4,5.2,12.3,1.9,16.7c-1.7,2.4-4.3,4.1-7.2,4.8
		c-2.2,0.5-4.1-0.6-6.1-1.4l-5.9-2.3c-2.6-1-5.2-2-7.8-3L549.2,151.7z"/>
</g>
</svg>
