<svg id="Layer_1" data-name="Layer 1" xmlns="http://www.w3.org/2000/svg" xmlns:xlink="http://www.w3.org/1999/xlink" viewBox="0 0 109.611 123.47">
  <defs>
    <style>
      .cls-1, .cls-10, .cls-11, .cls-2, .cls-3, .cls-4, .cls-5, .cls-6, .cls-7, .cls-8, .cls-9 {
        fill: #fff;
      }

      .cls-10, .cls-11, .cls-2, .cls-3, .cls-4, .cls-5, .cls-6, .cls-7, .cls-8, .cls-9 {
        stroke-miterlimit: 10;
      }

      .cls-2 {
        stroke: url(#linear-gradient);
      }

      .cls-11, .cls-3, .cls-5, .cls-7, .cls-9 {
        stroke-width: 0.75px;
      }

      .cls-3 {
        stroke: url(#linear-gradient-2);
      }

      .cls-4 {
        stroke: url(#linear-gradient-3);
      }

      .cls-5 {
        stroke: url(#linear-gradient-4);
      }

      .cls-6 {
        stroke: url(#linear-gradient-5);
      }

      .cls-7 {
        stroke: url(#linear-gradient-6);
      }

      .cls-8 {
        stroke: url(#linear-gradient-7);
      }

      .cls-9 {
        stroke: url(#linear-gradient-8);
      }

      .cls-10 {
        stroke: url(#linear-gradient-9);
      }

      .cls-11 {
        stroke: url(#linear-gradient-10);
      }
    </style>
    <linearGradient id="linear-gradient" x1="12.503" y1="99.897" x2="7.056" y2="99.897" gradientTransform="matrix(1, 0, 0, -1, 0, 123.89)" gradientUnits="userSpaceOnUse">
      <stop offset="0" stop-color="#e8a423"/>
      <stop offset="0.022" stop-color="#e9a721"/>
      <stop offset="0.254" stop-color="#f3c113"/>
      <stop offset="0.492" stop-color="#fad408"/>
      <stop offset="0.737" stop-color="#fedf02"/>
      <stop offset="1" stop-color="#ffe300"/>
    </linearGradient>
    <linearGradient id="linear-gradient-2" x1="12.419" y1="99.828" x2="7.455" y2="99.828" xlink:href="#linear-gradient"/>
    <linearGradient id="linear-gradient-3" x1="12.503" y1="9.597" x2="7.056" y2="9.597" xlink:href="#linear-gradient"/>
    <linearGradient id="linear-gradient-4" x1="12.419" y1="9.528" x2="7.455" y2="9.528" xlink:href="#linear-gradient"/>
    <linearGradient id="linear-gradient-5" x1="102.307" y1="9.597" x2="96.86" y2="9.597" xlink:href="#linear-gradient"/>
    <linearGradient id="linear-gradient-6" x1="102.223" y1="9.528" x2="97.259" y2="9.528" xlink:href="#linear-gradient"/>
    <linearGradient id="linear-gradient-7" x1="102.307" y1="99.897" x2="96.86" y2="99.897" xlink:href="#linear-gradient"/>
    <linearGradient id="linear-gradient-8" x1="102.223" y1="99.828" x2="97.259" y2="99.828" xlink:href="#linear-gradient"/>
    <linearGradient id="linear-gradient-9" x1="97.19" y1="54.162" x2="12.281" y2="54.162" xlink:href="#linear-gradient"/>
    <linearGradient id="linear-gradient-10" x1="48.778" y1="115.263" x2="60.651" y2="115.263" xlink:href="#linear-gradient"/>
  </defs>
  <title>hashbazaar-mine</title>
  <path class="cls-1" d="M70.921,83.061l-4.158-6.28c-5.121-7.736-17.925-7.736-23.047,0l-4.158,6.28L23.877,106.745h3.865L41.491,84.361l3.645-5.935c4.491-7.31,15.717-7.31,20.207,0l3.646,5.935,13.749,22.384H86.6Z"/>
  <path class="cls-1" d="M38.714,54.987l4.158,6.28C47.994,69,60.8,69,65.919,61.267l4.158-6.28L85.758,31.3H81.894L68.145,53.686,64.5,59.621c-4.49,7.311-15.716,7.311-20.207,0l-3.645-5.935L26.9,31.3H23.031Z"/>
  <polygon class="cls-1" points="9.181 0 9.181 14.511 11.554 14.511 11.554 2.394 97.532 2.394 97.532 14.511 100.454 14.511 100.454 0 9.181 0"/>
  <g>
    <path class="cls-1" d="M9.939,18.7A5.361,5.361,0,1,0,15.3,24.061h0A5.361,5.361,0,0,0,9.939,18.7Zm0,8.582a3.221,3.221,0,1,1,3.221-3.221h0a3.221,3.221,0,0,1-3.219,3.223h0Z"/>
    <line class="cls-2" x1="7.413" y1="21.584" x2="12.146" y2="26.402"/>
    <line class="cls-3" x1="12.146" y1="21.721" x2="7.728" y2="26.402"/>
  </g>
  <g>
    <path class="cls-1" d="M9.939,109a5.361,5.361,0,1,0,5.361,5.361h0A5.36,5.36,0,0,0,9.94,109Zm0,8.581a3.221,3.221,0,1,1,3.221-3.221h0a3.221,3.221,0,0,1-3.218,3.224h0Z"/>
    <line class="cls-4" x1="7.413" y1="111.884" x2="12.146" y2="116.702"/>
    <line class="cls-5" x1="12.146" y1="112.021" x2="7.728" y2="116.702"/>
  </g>
  <g>
    <path class="cls-1" d="M99.743,109a5.361,5.361,0,1,0,5.36,5.362v0A5.362,5.362,0,0,0,99.743,109Zm0,8.581a3.221,3.221,0,1,1,3.221-3.221h0a3.221,3.221,0,0,1-3.218,3.224h0Z"/>
    <line class="cls-6" x1="97.217" y1="111.884" x2="101.95" y2="116.702"/>
    <line class="cls-7" x1="101.95" y1="112.021" x2="97.532" y2="116.702"/>
  </g>
  <g>
    <path class="cls-1" d="M99.743,18.7a5.361,5.361,0,1,0,5.36,5.362h0A5.362,5.362,0,0,0,99.743,18.7Zm0,8.582a3.221,3.221,0,1,1,3.221-3.221h0a3.221,3.221,0,0,1-3.219,3.223h0Z"/>
    <line class="cls-8" x1="97.217" y1="21.584" x2="101.95" y2="26.402"/>
    <line class="cls-9" x1="101.95" y1="21.721" x2="97.532" y2="26.402"/>
  </g>
  <path class="cls-1" d="M105.241,14.511H4.546a4.331,4.331,0,0,0-4.365,4.3V119.17a4.331,4.331,0,0,0,4.362,4.3h100.7a4.33,4.33,0,0,0,4.365-4.3V18.806a4.33,4.33,0,0,0-4.365-4.3Zm1.484,104.659a1.473,1.473,0,0,1-1.484,1.46H4.546a1.473,1.473,0,0,1-1.484-1.46V18.806a1.475,1.475,0,0,1,1.484-1.461h100.7a1.473,1.473,0,0,1,1.484,1.461Z"/>
  <path class="cls-1" d="M54.818,18.749a50.239,50.239,0,1,0,50.238,50.24h0A50.239,50.239,0,0,0,54.818,18.749Zm0,97.643a47.4,47.4,0,1,1,47.4-47.4A47.4,47.4,0,0,1,54.818,116.392Z"/>
  <path class="cls-1" d="M54.818,22.436a46.552,46.552,0,1,0,46.551,46.553h0A46.552,46.552,0,0,0,54.818,22.436Zm0,90.477A43.925,43.925,0,1,1,98.743,68.988,43.925,43.925,0,0,1,54.818,112.913Z"/>
  <path class="cls-1" d="M54.818,28.973A40.015,40.015,0,1,0,94.831,68.99v0A40.015,40.015,0,0,0,54.818,28.973Zm0,77.772A37.757,37.757,0,1,1,92.575,68.988h0A37.8,37.8,0,0,1,54.818,106.745Z"/>
  <path class="cls-1" d="M54.818,50.572A18.416,18.416,0,1,0,73.231,68.991v0A18.416,18.416,0,0,0,54.818,50.572Zm0,35.792A17.377,17.377,0,1,1,72.194,68.986v0A17.4,17.4,0,0,1,54.818,86.364Z"/>
  <path class="cls-1" d="M54.818,35.3A33.685,33.685,0,1,0,88.5,68.985h0A33.685,33.685,0,0,0,54.818,35.3Zm0,65.469A31.785,31.785,0,1,1,86.6,68.983v0a31.82,31.82,0,0,1-31.784,31.787Z"/>
  <path class="cls-1" d="M54.818,41.072A27.916,27.916,0,1,0,82.731,68.991v0A27.917,27.917,0,0,0,54.818,41.072Zm0,54.257A26.341,26.341,0,1,1,81.159,68.988,26.341,26.341,0,0,1,54.818,95.329Z"/>
  <path class="cls-1" d="M54.818,46.705A22.283,22.283,0,1,0,77.1,68.988h0A22.282,22.282,0,0,0,54.818,46.705Zm0,43.309A21.026,21.026,0,1,1,75.844,68.988,21.026,21.026,0,0,1,54.818,90.014Z"/>
  <path class="cls-1" d="M54.818,57.661A11.327,11.327,0,1,0,66.145,68.988h0A11.329,11.329,0,0,0,54.818,57.661Zm0,22.015A10.688,10.688,0,1,1,65.506,68.988,10.688,10.688,0,0,1,54.818,79.676Z"/>
  <path class="cls-10" d="M96.613,69.484c-.035-.609-.07-1.218-.061-1.828a2.936,2.936,0,0,0-.249-1.538,1.535,1.535,0,0,0-.7-.616c-.941-.447-1.54-.026-2.312.488a10.193,10.193,0,0,1-1.514.758c-.964.428-1.959.78-2.947,1.148-2.323.864-4.676,1.648-7.035,2.408q-2.575.831-5.164,1.622l-2.647.8a11.293,11.293,0,0,0-1.8.471,17.722,17.722,0,0,0,.5-3.718c.138-.053.273-.111.411-.165a50.385,50.385,0,0,0,9.22-7.585,109.151,109.151,0,0,0,9.416-10.915.6.6,0,0,0,.109-.184.567.567,0,0,0,.006-.232,6.645,6.645,0,0,0-.811-2.271,22.179,22.179,0,0,0-3.13-4.449c-.4-.388-.752-.847-1.136-1.255-.417-.445-.836-.889-1.221-1.361a2.929,2.929,0,0,0-1.179-1.019,1.551,1.551,0,0,0-.934-.021c-1.008.263-1.2.971-1.457,1.86a10.185,10.185,0,0,1-.673,1.554c-.463.948-1,1.857-1.52,2.774-1.224,2.155-2.523,4.268-3.841,6.367q-1.44,2.292-2.913,4.562-.753,1.159-1.516,2.312c-.172.259-.609.741-.894,1.18a17.772,17.772,0,0,0-2.068-3.065c.028-.05.054-.1.081-.151a50.248,50.248,0,0,0,2.187-11.738,109.191,109.191,0,0,0,.2-14.414.6.6,0,0,0-.035-.21.57.57,0,0,0-.145-.182,6.65,6.65,0,0,0-2.081-1.219,22.26,22.26,0,0,0-5.257-1.4c-.558-.038-1.121-.165-1.677-.231-.6-.073-1.211-.144-1.811-.258a2.929,2.929,0,0,0-1.557-.022,1.529,1.529,0,0,0-.729.584c-.6.85-.293,1.513.079,2.361a10.224,10.224,0,0,1,.484,1.623c.254,1.024.428,2.065.618,3.1.447,2.438.811,4.891,1.15,7.346q.37,2.682.7,5.368.168,1.371.325,2.745c.035.306.01.946.072,1.463a17.616,17.616,0,0,0-3.535-.922c-.017-.083-.036-.166-.053-.249A50.3,50.3,0,0,0,51.7,40.76,109.024,109.024,0,0,0,42.574,29.6a.584.584,0,0,0-.162-.139.577.577,0,0,0-.228-.046,6.64,6.64,0,0,0-2.377.4,22.171,22.171,0,0,0-4.924,2.31c-.453.329-.965.593-1.434.9-.51.334-1.02.669-1.553.967a2.954,2.954,0,0,0-1.207.984,1.53,1.53,0,0,0-.183.916c.084,1.039.748,1.347,1.578,1.758a10.276,10.276,0,0,1,1.414.932c.853.621,1.655,1.307,2.468,1.979,1.909,1.58,3.765,3.226,5.6,4.889q2.007,1.815,3.987,3.661,1.011.942,2.013,1.894a14.191,14.191,0,0,0,1.23,1.271,17.664,17.664,0,0,0-3.261,1.584c-.157-.126-.317-.246-.474-.372A50.349,50.349,0,0,0,33.884,49.3a109.526,109.526,0,0,0-14.16-2.7.592.592,0,0,0-.214,0,.568.568,0,0,0-.2.11,6.64,6.64,0,0,0-1.561,1.838,22.173,22.173,0,0,0-2.288,4.935c-.135.543-.358,1.075-.519,1.611-.177.584-.352,1.169-.568,1.739a2.931,2.931,0,0,0-.293,1.53,1.533,1.533,0,0,0,.45.817c.732.742,1.439.551,2.339.333a10.23,10.23,0,0,1,1.682-.2c1.053-.073,2.108-.063,3.163-.071,2.478-.017,4.957.051,7.434.143q2.7.1,5.408.242,1.38.074,2.759.157c.474.029,1.711.34,2.138.1a.536.536,0,0,0,.155-.156c.118-.159.252-.3.376-.454a17.7,17.7,0,0,0-1.934,3.987c-.353.01-.7.026-1.058.035a50.336,50.336,0,0,0-11.262,3.981,109.462,109.462,0,0,0-12.582,7.035.615.615,0,0,0-.165.136.6.6,0,0,0-.085.216,6.651,6.651,0,0,0-.015,2.412,22.161,22.161,0,0,0,1.42,5.25c.246.5.417,1.054.638,1.569.24.56.481,1.121.682,1.7a2.949,2.949,0,0,0,.76,1.36,1.534,1.534,0,0,0,.87.339c1.038.1,1.457-.5,2.006-1.249a10.18,10.18,0,0,1,1.163-1.231c.76-.732,1.575-1.4,2.378-2.086,1.887-1.607,3.83-3.148,5.786-4.669q2.137-1.662,4.3-3.291,1.1-.831,2.215-1.654c.382-.282,1.529-.839,1.7-1.3a.541.541,0,0,0,.018-.219,13.655,13.655,0,0,1,.332-3.855c-.028.414-.063.826-.063,1.247a17.713,17.713,0,0,0,1.084,6.067c-.353.32-.706.639-1.063.955a50.32,50.32,0,0,0-6.07,10.282,109.09,109.09,0,0,0-5.115,13.476.449.449,0,0,0,.034.431,6.616,6.616,0,0,0,1.539,1.856,22.224,22.224,0,0,0,4.463,3.11c.511.227,1,.539,1.5.792.545.274,1.09.549,1.614.861a2.917,2.917,0,0,0,1.456.553,1.523,1.523,0,0,0,.884-.3c.858-.592.793-1.322.734-2.246a10.288,10.288,0,0,1,.1-1.691c.112-1.049.3-2.087.48-3.126.414-2.444.911-4.874,1.432-7.3q.569-2.646,1.177-5.283.312-1.347.634-2.691c.111-.461.631-1.625.471-2.087a.556.556,0,0,0-.127-.18,13.493,13.493,0,0,1-2.9-4.7,17.865,17.865,0,0,0,6.171,6.378q-.1.762-.215,1.521a50.273,50.273,0,0,0,1.959,11.779,108.973,108.973,0,0,0,4.744,13.612.581.581,0,0,0,.1.186.565.565,0,0,0,.2.122,6.655,6.655,0,0,0,2.372.433,22.153,22.153,0,0,0,5.417-.487c.538-.154,1.11-.227,1.656-.355.593-.14,1.187-.28,1.789-.378a2.917,2.917,0,0,0,1.472-.512,1.531,1.531,0,0,0,.485-.8c.276-1-.242-1.521-.882-2.192a10.141,10.141,0,0,1-1.01-1.359c-.589-.875-1.108-1.794-1.642-2.7-1.254-2.137-2.435-4.319-3.593-6.509q-1.266-2.394-2.5-4.8-.627-1.233-1.244-2.469c-.211-.424-.561-1.651-.981-1.9a.538.538,0,0,0-.212-.056,13.482,13.482,0,0,1-5.387-1.821A17.312,17.312,0,0,0,57.2,86.633c.235.376.472.75.7,1.128a50.29,50.29,0,0,0,9.072,7.763A109.13,109.13,0,0,0,79.357,102.9a.57.57,0,0,0,.2.075.546.546,0,0,0,.23-.034,6.634,6.634,0,0,0,2.1-1.193A22.22,22.22,0,0,0,85.724,97.9c.313-.464.7-.888,1.04-1.336.365-.489.73-.978,1.128-1.44a2.938,2.938,0,0,0,.8-1.338,1.54,1.54,0,0,0-.141-.923c-.434-.947-1.164-1.01-2.085-1.112a10.223,10.223,0,0,1-1.647-.392c-1.014-.292-2-.662-3-1.016-2.335-.832-4.641-1.743-6.937-2.677q-2.507-1.02-5-2.077-1.272-.54-2.539-1.091c-.435-.189-1.492-.9-1.974-.826a.51.51,0,0,0-.2.093,13.707,13.707,0,0,1-3.033,1.488,17.837,17.837,0,0,0,5.854-4.225c.285.095.572.184.857.279a50.3,50.3,0,0,0,11.939.116A109.451,109.451,0,0,0,95.02,79.1a.621.621,0,0,0,.2-.071.584.584,0,0,0,.154-.174,6.67,6.67,0,0,0,.839-2.262,22.213,22.213,0,0,0,.461-5.419C96.617,70.62,96.644,70.043,96.613,69.484Z"/>
  <rect class="cls-11" x="49.153" y="3.392" width="11.123" height="10.469"/>
  <polygon class="cls-1" points="56.914 5.12 52.608 5.12 52.608 7.255 51.132 7.255 51.132 13.055 58.452 13.055 58.452 7.255 56.928 7.255 56.914 5.12"/>
  <path class="cls-1" d="M109.531,71.367a8.983,8.983,0,0,0,.056.97V70.4A8.927,8.927,0,0,0,109.531,71.367Z"/>
  <path class="cls-1" d="M.056,72.367a8.983,8.983,0,0,1-.056.97V71.4A8.927,8.927,0,0,1,.056,72.367Z"/>
</svg>
