<?xml version="1.0" encoding="utf-8"?>
<!-- Generator: Adobe Illustrator 23.0.6, SVG Export Plug-In . SVG Version: 6.00 Build 0)  -->
<svg version="1.1" id="Layer_1" xmlns="http://www.w3.org/2000/svg" xmlns:xlink="http://www.w3.org/1999/xlink" x="0px" y="0px"
	 viewBox="0 0 42.4 40.9" style="enable-background:new 0 0 42.4 40.9;" xml:space="preserve">
<style type="text/css">
	.st0{fill:#F89A20;stroke:#404040;stroke-miterlimit:10;}
</style>
<title>8Asset 5</title>
<g>
	<g id="Layer_1-2">
		<path class="st0" d="M41.4,11l-1.6-1.6c-0.6-0.6-1.7-0.6-2.3,0l-9.9,9.9l-5-5.3L32.2,5c0.7-0.6,0.7-1.6,0.1-2.3L30.7,1
			c-0.6-0.7-1.6-0.7-2.3-0.1l-9.6,9l-2.4-2.6C9.1,10,5.4,18.1,8.1,25.3c0.4,1,0.8,1.9,1.4,2.8L1,35.9c-0.7,0.6-0.7,1.6-0.1,2.3
			l1.6,1.7c0.6,0.7,1.6,0.7,2.3,0.1l8.6-7.9c6.4,4.4,15.1,2.7,19.5-3.7c0.5-0.7,0.9-1.5,1.3-2.3l-2.7-2.8l10-10
			C42.1,12.6,42.1,11.6,41.4,11z"/>
	</g>
</g>
</svg>
