<svg xmlns="http://www.w3.org/2000/svg" viewBox="0 0 20 14">
  <defs>
    <style>
      .cls-1 {
        fill: #eaae0d;
      }
    </style>
  </defs>
  <path id="path" class="cls-1" d="M9,1195.2a11.2,11.2,0,0,1,2.4.3c-1.6.9-2.4,2-2.4,3.5v2.2H2v-2.5a2.2,2.2,0,0,1,1.3-1.9,7.673,7.673,0,0,1,2.8-1.2A15.509,15.509,0,0,1,9,1195.2Zm2.1-2.9a2.9,2.9,0,0,1-4.2,0,2.9,2.9,0,0,1,0-4.2,2.9,2.9,0,0,1,4.2,0,2.9,2.9,0,0,1,0,4.2Zm1.8,4.7a9.791,9.791,0,0,1,3.6-.8,7.843,7.843,0,0,1,3.6.8c1.2.5,1.9,1.2,1.9,2v2.2H11V1199C11,1198.1,11.6,1197.5,12.9,1197Zm5.4-3.5a2.41,2.41,0,0,1-1.8.7,2.546,2.546,0,0,1-1.8-4.3,2.5,2.5,0,0,1,1.8-.8,2.171,2.171,0,0,1,1.8.8,2.41,2.41,0,0,1,.7,1.8A2.875,2.875,0,0,1,18.3,1193.5Z" transform="translate(-2 -1187.2)"/>
</svg>
