<?xml version="1.0" encoding="utf-8"?>
<!-- Generator: Adobe Illustrator 23.0.6, SVG Export Plug-In . SVG Version: 6.00 Build 0)  -->
<svg version="1.1" id="Layer_1" xmlns="http://www.w3.org/2000/svg" xmlns:xlink="http://www.w3.org/1999/xlink" x="0px" y="0px"
	 viewBox="0 0 19.3 13.6" style="enable-background:new 0 0 19.3 13.6;" xml:space="preserve">
<style type="text/css">
	.st0{fill:#F89A20;stroke:#404040;stroke-width:0.2381;stroke-miterlimit:10;}
</style>
<path id="path" class="st0" d="M6.8,7.8c0.8,0,1.5,0.1,2.3,0.3c-1.5,0.9-2.3,1.9-2.3,3.3v2.1H0.1v-2.4c0-0.8,0.5-1.5,1.2-1.8
	c0.8-0.6,1.7-1,2.7-1.1C5,7.9,5.8,7.8,6.8,7.8z M8.8,5C7.7,6.1,6,6.1,4.9,5.1L4.8,5c-1.1-1-1.1-2.8-0.1-3.9L4.8,1
	c1-1.1,2.8-1.1,3.9-0.1L8.8,1C9.9,2,9.9,3.8,8.8,5C8.9,4.9,8.8,5,8.8,5z M10.5,9.5c1-0.5,2.3-0.8,3.4-0.8s2.4,0.3,3.4,0.8
	c1.1,0.5,1.8,1.1,1.8,1.9v2.1H8.7v-2.1C8.7,10.5,9.3,9.9,10.5,9.5L10.5,9.5z M15.6,6.1c-0.5,0.5-1,0.7-1.7,0.7
	c-1.3,0-2.4-1.1-2.4-2.5c0-0.6,0.3-1.1,0.7-1.6c0.5-0.5,1-0.8,1.7-0.8s1.3,0.3,1.7,0.8c0.5,0.5,0.7,1,0.7,1.7S16,5.7,15.6,6.1
	L15.6,6.1z"/>
</svg>
