<?xml version="1.0" encoding="utf-8"?>
<!-- Generator: Adobe Illustrator 23.0.1, SVG Export Plug-In . SVG Version: 6.00 Build 0)  -->
<svg version="1.1" id="Layer_1" xmlns="http://www.w3.org/2000/svg" xmlns:xlink="http://www.w3.org/1999/xlink" x="0px" y="0px"
	 viewBox="0 0 80 57" style="enable-background:new 0 0 80 57;" xml:space="preserve">
<style type="text/css">
	.st0{fill:none;stroke:#0E2738;stroke-width:1.5;stroke-linecap:round;stroke-linejoin:round;}
	.st1{fill:none;stroke:url(#SVGID_1_);stroke-width:1.5;stroke-linecap:round;stroke-linejoin:round;}
	.st2{fill:none;stroke:url(#SVGID_2_);stroke-width:1.5;stroke-linecap:round;stroke-linejoin:round;}
	.st3{fill:none;stroke:url(#SVGID_3_);stroke-width:1.5;stroke-linecap:round;stroke-linejoin:round;}
	.st4{fill:none;stroke:url(#SVGID_4_);stroke-width:1.5;stroke-linecap:round;stroke-linejoin:round;}
	.st5{fill:none;stroke:url(#SVGID_5_);stroke-width:1.5;stroke-linecap:round;stroke-linejoin:round;}
	.st6{fill:none;stroke:url(#SVGID_6_);stroke-width:1.5;stroke-linecap:round;stroke-linejoin:round;}
	.st7{fill:none;stroke:url(#SVGID_7_);stroke-width:1.5;stroke-linecap:round;stroke-linejoin:round;}
	.st8{fill:none;stroke:url(#SVGID_8_);stroke-width:1.5;stroke-linecap:round;stroke-linejoin:round;}
	.st9{fill:none;stroke:url(#SVGID_9_);stroke-width:1.5;stroke-linecap:round;stroke-linejoin:round;}
	.st10{fill:none;stroke:url(#SVGID_10_);stroke-width:1.5;stroke-linecap:round;stroke-linejoin:round;}
	.st11{fill:none;stroke:url(#SVGID_11_);stroke-width:1.5;stroke-linecap:round;stroke-linejoin:round;}
	.st12{fill:none;stroke:url(#SVGID_12_);stroke-width:1.5;stroke-linecap:round;stroke-linejoin:round;}
</style>
<g>
	<path class="st0" d="M1.4,1.5v54.1h77.1"/>
</g>
<linearGradient id="SVGID_1_" gradientUnits="userSpaceOnUse" x1="31.1463" y1="13" x2="32.6463" y2="13">
	<stop  offset="0" style="stop-color:#E8A423"/>
	<stop  offset="2.200000e-02" style="stop-color:#E9A721"/>
	<stop  offset="0.254" style="stop-color:#F3C113"/>
	<stop  offset="0.492" style="stop-color:#FAD408"/>
	<stop  offset="0.737" style="stop-color:#FEDF02"/>
	<stop  offset="1" style="stop-color:#FFE300"/>
</linearGradient>
<line class="st1" x1="31.9" y1="9.1" x2="31.9" y2="16.9"/>
<linearGradient id="SVGID_2_" gradientUnits="userSpaceOnUse" x1="16.25" y1="6.138" x2="17.75" y2="6.138">
	<stop  offset="0" style="stop-color:#E8A423"/>
	<stop  offset="2.200000e-02" style="stop-color:#E9A721"/>
	<stop  offset="0.254" style="stop-color:#F3C113"/>
	<stop  offset="0.492" style="stop-color:#FAD408"/>
	<stop  offset="0.737" style="stop-color:#FEDF02"/>
	<stop  offset="1" style="stop-color:#FFE300"/>
</linearGradient>
<line class="st2" x1="17" y1="2.3" x2="17" y2="10"/>
<linearGradient id="SVGID_3_" gradientUnits="userSpaceOnUse" x1="62.25" y1="43.4558" x2="63.75" y2="43.4558">
	<stop  offset="0" style="stop-color:#E8A423"/>
	<stop  offset="2.200000e-02" style="stop-color:#E9A721"/>
	<stop  offset="0.254" style="stop-color:#F3C113"/>
	<stop  offset="0.492" style="stop-color:#FAD408"/>
	<stop  offset="0.737" style="stop-color:#FEDF02"/>
	<stop  offset="1" style="stop-color:#FFE300"/>
</linearGradient>
<line class="st3" x1="63" y1="39.6" x2="63" y2="47.3"/>
<linearGradient id="SVGID_4_" gradientUnits="userSpaceOnUse" x1="62.25" y1="15.138" x2="63.75" y2="15.138">
	<stop  offset="0" style="stop-color:#E8A423"/>
	<stop  offset="2.200000e-02" style="stop-color:#E9A721"/>
	<stop  offset="0.254" style="stop-color:#F3C113"/>
	<stop  offset="0.492" style="stop-color:#FAD408"/>
	<stop  offset="0.737" style="stop-color:#FEDF02"/>
	<stop  offset="1" style="stop-color:#FFE300"/>
</linearGradient>
<line class="st4" x1="63" y1="11.3" x2="63" y2="19"/>
<linearGradient id="SVGID_5_" gradientUnits="userSpaceOnUse" x1="16.25" y1="34.7318" x2="17.75" y2="34.7318">
	<stop  offset="0" style="stop-color:#E8A423"/>
	<stop  offset="2.200000e-02" style="stop-color:#E9A721"/>
	<stop  offset="0.254" style="stop-color:#F3C113"/>
	<stop  offset="0.492" style="stop-color:#FAD408"/>
	<stop  offset="0.737" style="stop-color:#FEDF02"/>
	<stop  offset="1" style="stop-color:#FFE300"/>
</linearGradient>
<line class="st5" x1="17" y1="30.9" x2="17" y2="38.6"/>
<linearGradient id="SVGID_6_" gradientUnits="userSpaceOnUse" x1="31.1463" y1="41.3458" x2="32.6463" y2="41.3458">
	<stop  offset="0" style="stop-color:#E8A423"/>
	<stop  offset="2.200000e-02" style="stop-color:#E9A721"/>
	<stop  offset="0.254" style="stop-color:#F3C113"/>
	<stop  offset="0.492" style="stop-color:#FAD408"/>
	<stop  offset="0.737" style="stop-color:#FEDF02"/>
	<stop  offset="1" style="stop-color:#FFE300"/>
</linearGradient>
<line class="st6" x1="31.9" y1="37.5" x2="31.9" y2="45.2"/>
<linearGradient id="SVGID_7_" gradientUnits="userSpaceOnUse" x1="27.1463" y1="27.1729" x2="36.6463" y2="27.1729">
	<stop  offset="0" style="stop-color:#E8A423"/>
	<stop  offset="2.200000e-02" style="stop-color:#E9A721"/>
	<stop  offset="0.254" style="stop-color:#F3C113"/>
	<stop  offset="0.492" style="stop-color:#FAD408"/>
	<stop  offset="0.737" style="stop-color:#FEDF02"/>
	<stop  offset="1" style="stop-color:#FFE300"/>
</linearGradient>
<path class="st7" d="M35.5,36.9h-7.2c-0.2,0-0.4-0.2-0.4-0.4V17.8c0-0.2,0.2-0.4,0.4-0.4h7.2c0.2,0,0.4,0.2,0.4,0.4v18.7
	C35.9,36.7,35.7,36.9,35.5,36.9z"/>
<linearGradient id="SVGID_8_" gradientUnits="userSpaceOnUse" x1="58.25" y1="29.1729" x2="67.75" y2="29.1729">
	<stop  offset="0" style="stop-color:#E8A423"/>
	<stop  offset="2.200000e-02" style="stop-color:#E9A721"/>
	<stop  offset="0.254" style="stop-color:#F3C113"/>
	<stop  offset="0.492" style="stop-color:#FAD408"/>
	<stop  offset="0.737" style="stop-color:#FEDF02"/>
	<stop  offset="1" style="stop-color:#FFE300"/>
</linearGradient>
<path class="st8" d="M66.6,38.9h-7.2c-0.2,0-0.4-0.2-0.4-0.4V19.8c0-0.2,0.2-0.4,0.4-0.4h7.2c0.2,0,0.4,0.2,0.4,0.4v18.7
	C67,38.7,66.8,38.9,66.6,38.9z"/>
<linearGradient id="SVGID_9_" gradientUnits="userSpaceOnUse" x1="47.25" y1="32.6589" x2="48.75" y2="32.6589">
	<stop  offset="0" style="stop-color:#E8A423"/>
	<stop  offset="2.200000e-02" style="stop-color:#E9A721"/>
	<stop  offset="0.254" style="stop-color:#F3C113"/>
	<stop  offset="0.492" style="stop-color:#FAD408"/>
	<stop  offset="0.737" style="stop-color:#FEDF02"/>
	<stop  offset="1" style="stop-color:#FFE300"/>
</linearGradient>
<line class="st9" x1="48" y1="28.8" x2="48" y2="36.5"/>
<linearGradient id="SVGID_10_" gradientUnits="userSpaceOnUse" x1="47.25" y1="4.3411" x2="48.75" y2="4.3411">
	<stop  offset="0" style="stop-color:#E8A423"/>
	<stop  offset="2.200000e-02" style="stop-color:#E9A721"/>
	<stop  offset="0.254" style="stop-color:#F3C113"/>
	<stop  offset="0.492" style="stop-color:#FAD408"/>
	<stop  offset="0.737" style="stop-color:#FEDF02"/>
	<stop  offset="1" style="stop-color:#FFE300"/>
</linearGradient>
<line class="st10" x1="48" y1="0.5" x2="48" y2="8.2"/>
<linearGradient id="SVGID_11_" gradientUnits="userSpaceOnUse" x1="43.25" y1="18.376" x2="52.75" y2="18.376">
	<stop  offset="0" style="stop-color:#E8A423"/>
	<stop  offset="2.200000e-02" style="stop-color:#E9A721"/>
	<stop  offset="0.254" style="stop-color:#F3C113"/>
	<stop  offset="0.492" style="stop-color:#FAD408"/>
	<stop  offset="0.737" style="stop-color:#FEDF02"/>
	<stop  offset="1" style="stop-color:#FFE300"/>
</linearGradient>
<path class="st11" d="M51.6,28.1h-7.2c-0.2,0-0.4-0.2-0.4-0.4V9c0-0.2,0.2-0.4,0.4-0.4h7.2C51.8,8.6,52,8.8,52,9v18.7
	C52,28,51.8,28.1,51.6,28.1z"/>
<linearGradient id="SVGID_12_" gradientUnits="userSpaceOnUse" x1="12.25" y1="20.4349" x2="21.75" y2="20.4349">
	<stop  offset="0" style="stop-color:#E8A423"/>
	<stop  offset="2.200000e-02" style="stop-color:#E9A721"/>
	<stop  offset="0.254" style="stop-color:#F3C113"/>
	<stop  offset="0.492" style="stop-color:#FAD408"/>
	<stop  offset="0.737" style="stop-color:#FEDF02"/>
	<stop  offset="1" style="stop-color:#FFE300"/>
</linearGradient>
<path class="st12" d="M20.6,30.2h-7.2c-0.2,0-0.4-0.2-0.4-0.4V11.1c0-0.2,0.2-0.4,0.4-0.4h7.2c0.2,0,0.4,0.2,0.4,0.4v18.7
	C21,30,20.8,30.2,20.6,30.2z"/>
</svg>
