<?xml version="1.0" encoding="utf-8"?>
<!-- Generator: Adobe Illustrator 23.0.6, SVG Export Plug-In . SVG Version: 6.00 Build 0)  -->
<svg version="1.1" id="Layer_1" xmlns="http://www.w3.org/2000/svg" xmlns:xlink="http://www.w3.org/1999/xlink" x="0px" y="0px"
	 viewBox="0 0 804.5 144.6" style="enable-background:new 0 0 804.5 144.6;" xml:space="preserve">
<style type="text/css">
	.st0{fill:none;}
	.st1{fill:url(#SVGID_1_);stroke:#000000;stroke-width:0.5167;stroke-miterlimit:10;}
	.st2{fill:url(#SVGID_2_);stroke:#000000;stroke-width:0.5838;stroke-miterlimit:10;}
	.st3{fill:url(#SVGID_3_);stroke:#000000;stroke-width:0.5438;stroke-miterlimit:10;}
	.st4{fill:url(#SVGID_4_);stroke:#000000;stroke-width:0.5438;stroke-miterlimit:10;}
	.st5{fill:url(#SVGID_5_);stroke:#000000;stroke-width:0.5438;stroke-miterlimit:10;}
	.st6{fill:url(#SVGID_6_);stroke:#000000;stroke-width:0.576;stroke-miterlimit:10;}
	.st7{fill:url(#SVGID_7_);stroke:#000000;stroke-width:0.8581;stroke-miterlimit:10;}
</style>
<pattern  x="27.5" y="175" width="314.6" height="314.6" patternUnits="userSpaceOnUse" id="New_Pattern" viewBox="315.5 -393.7 314.6 314.6" style="overflow:visible;">
	<g>
		<rect x="315.5" y="-393.7" class="st0" width="314.6" height="314.6"/>
		
			<image style="overflow:visible;" width="860" height="430" xlink:href="mining-farm.jpg"  transform="matrix(0.3678 0 0 0.3678 629.2913 -158.1617)">
		</image>
		
			<image style="overflow:visible;" width="860" height="430" xlink:href="mining-farm.jpg"  transform="matrix(0.3678 0 0 0.3678 314.6457 -158.1617)">
		</image>
		
			<image style="overflow:visible;" width="860" height="430" xlink:href="mining-farm.jpg"  transform="matrix(0.3678 0 0 0.3678 0 -158.1617)">
		</image>
		
			<image style="overflow:visible;" width="860" height="430" xlink:href="mining-farm.jpg"  transform="matrix(0.3678 0 0 0.3678 629.2913 -315.4845)">
		</image>
		
			<image style="overflow:visible;" width="860" height="430" xlink:href="mining-farm.jpg"  transform="matrix(0.3678 0 0 0.3678 314.6457 -315.4845)">
		</image>
		
			<image style="overflow:visible;" width="860" height="430" xlink:href="mining-farm.jpg"  transform="matrix(0.3678 0 0 0.3678 0 -315.4845)">
		</image>
		
			<image style="overflow:visible;" width="860" height="430" xlink:href="mining-farm.jpg"  transform="matrix(0.3678 0 0 0.3678 629.2913 -472.8073)">
		</image>
		
			<image style="overflow:visible;" width="860" height="430" xlink:href="mining-farm.jpg"  transform="matrix(0.3678 0 0 0.3678 314.6457 -472.8073)">
		</image>
		
			<image style="overflow:visible;" width="860" height="430" xlink:href="mining-farm.jpg"  transform="matrix(0.3678 0 0 0.3678 0 -472.8073)">
		</image>
	</g>
</pattern>
<pattern  id="SVGID_1_" xlink:href="#New_Pattern" patternTransform="matrix(0.8581 0 0 0.8581 -706.506 -880.0392)">
</pattern>
<path class="st1" d="M285.6,76.1c-4.3-3.8-9.9-6.6-15.9-8c0,0,10.4-5,13.5-11.8c0,0,6-11.2-0.2-21.4c-1.9-3.1-3.5-6-6.3-8.5
	c-4.5-3.9-10.7-5.9-16.7-6.8c-1.2-0.2-14.6-1-14.6-0.5V1.4h-15.6v17.6H216V1.4h-15.9v17.9L168.5,19v15.7c0-0.4,11.6-0.1,12.7,0.2
	c3.3,0.6,6.7,2.6,7.5,5.8c0.6,1.9,0.1,4.3,0.1,6.3v54.1c0,3.9-3.8,6.4-7.7,7.3c-1.4,0.3-12.6,0.3-12.6,0.2v15.5h31.7v17.4h16.3
	v-17.4h12.7v17.4h16.3v-17.3c0,0,17.5,0,25.2-2.6c0,0,11.2-1.2,18-12.1c1-1.4,1.7-3,2.2-4.5c1.7-6.2,4-14.9,1.1-20.7
	C290.4,81.3,288.3,78.5,285.6,76.1z M216,34.4c8.6,0,17.3,0,25.8,0c9.7,0,13.1,12.3,11,19.2c-1,3.6-3.6,6.8-7.1,9
	c-2.7,1.5-5.8,1.2-8.8,1.2H216V34.4z M262,93.1c-1.1,8.3-7.8,14.1-17,15.1c-6,0.6-12.4,0.1-18.4,0.1H216V77.9h19.1
	c8.8,0,18.1,0,23.7,7.4C260.4,87.2,262.3,90.6,262,93.1z"/>
<pattern  id="SVGID_2_" xlink:href="#New_Pattern" patternTransform="matrix(0.8581 0 0 0.8581 -706.506 -886.4834)">
</pattern>
<polygon class="st2" points="492,27.1 491.9,14.7 399.2,14.7 399.2,30.1 465.4,30.1 398.6,115.5 398.8,128.2 494.2,128.2 
	494.2,112.8 425.3,112.8 "/>
<pattern  id="SVGID_3_" xlink:href="#New_Pattern" patternTransform="matrix(0.8581 0 0 0.8581 -706.506 -886.8774)">
</pattern>
<path class="st3" d="M645.2,15.7l-39.1,111.5l20.6,0l8.3-25.9l37.7,0l8.1,25.9l20.5,0L662.8,15.7L645.2,15.7z M639.9,85.6l14-43.7
	l13.7,43.7L639.9,85.6z"/>
<pattern  id="SVGID_4_" xlink:href="#New_Pattern" patternTransform="matrix(0.8581 0 0 0.8581 -706.506 -886.8774)">
</pattern>
<path class="st4" d="M542.7,15.7l-39.1,111.5l20.6,0l8.3-25.9l37.7,0l8.1,25.9l20.5,0L560.3,15.7L542.7,15.7z M537.4,85.6l14-43.7
	l13.7,43.7L537.4,85.6z"/>
<pattern  id="SVGID_5_" xlink:href="#New_Pattern" patternTransform="matrix(0.8581 0 0 0.8581 -706.506 -886.8774)">
</pattern>
<path class="st5" d="M333.3,15.7l-39.1,111.5l20.6,0l8.3-25.9l37.7,0l8.1,25.9l20.5,0L350.8,15.7L333.3,15.7z M328,85.6l14-43.7
	l13.7,43.7L328,85.6z"/>
<pattern  id="SVGID_6_" xlink:href="#New_Pattern" patternTransform="matrix(0.8581 0 0 0.8581 -706.506 -886.3143)">
</pattern>
<path class="st6" d="M775.2,79.4c3.7-1.3,7.1-2.9,10.1-4.8s5.8-4,8-6.5c2.2-2.5,3.8-5.2,5.1-8.3c1.2-3.1,1.8-6.5,1.8-10.2
	c0-5.6-1.2-10.4-3.6-14.6c-2.3-4.1-5.6-7.5-10-10.3c-4.4-2.8-9.5-4.9-15.4-6.2c-5.9-1.4-12.3-2.2-19.4-2.2h-43.2v110.2h22.6v-43h23
	l25.9,43.1h24.1v-0.9L775.2,79.4z M770.4,63.8c-2.2,1.7-5,2.9-8.1,3.7c-3.2,0.8-6.7,1.2-10.4,1.2h-20.8l0.1-38H752
	c3.8,0.1,7.4,0.5,10.6,1.3c3.2,0.9,5.9,2.1,8.1,3.7c2.2,1.7,4,3.6,5.1,6c1.2,2.4,1.8,5.1,1.8,8.2c0,3-0.6,5.7-1.9,8
	C774.6,60.3,772.8,62.3,770.4,63.8z"/>
<pattern  id="SVGID_7_" xlink:href="#New_Pattern" patternTransform="matrix(0.6467 0 0 0.6467 -2280.8281 -2766.8936)">
</pattern>
<path class="st7" d="M145.5,58.9c4.1,0,7.4-3.3,7.4-7.4V40.7c0-4.1-3.3-7.4-7.4-7.4h-29.4V7.9c0-4.1-3.3-7.4-7.4-7.4H97.8
	c-4.1,0-7.4,3.3-7.4,7.4v25.4h-23V7.9c0-4.1-3.3-7.4-7.4-7.4H49.2c-4.1,0-7.4,3.3-7.4,7.4v25.4H7.9c-4.1,0-7.4,3.3-7.4,7.4v10.8
	c0,4.1,3.3,7.4,7.4,7.4h33.9v18.5H7.9c-4.1,0-7.4,3.3-7.4,7.4v10.8c0,4.1,3.3,7.4,7.4,7.4h33.9v33.6c0,4.1,3.3,7.4,7.4,7.4H60
	c4.1,0,7.4-3.3,7.4-7.4v-33.6h23v33.6c0,4.1,3.3,7.4,7.4,7.4h10.8c4.1,0,7.4-3.3,7.4-7.4v-33.6h29.4c4.1,0,7.4-3.3,7.4-7.4V84.9
	c0-4.1-3.3-7.4-7.4-7.4h-29.4V58.9H145.5z M90.4,77.4h-23V58.9h23V77.4z"/>
</svg>
