<?xml version="1.0" encoding="utf-8"?>
<!-- Generator: Adobe Illustrator 23.0.6, SVG Export Plug-In . SVG Version: 6.00 Build 0)  -->
<svg version="1.1" id="Layer_1" xmlns="http://www.w3.org/2000/svg" xmlns:xlink="http://www.w3.org/1999/xlink" x="0px" y="0px"
	 viewBox="0 0 940.2 175.1" style="enable-background:new 0 0 940.2 175.1;" xml:space="preserve">
<style type="text/css">
	.st0{fill:none;}
	.st1{fill:url(#SVGID_1_);stroke:#000000;stroke-width:0.6022;stroke-miterlimit:10;}
	.st2{fill:url(#SVGID_2_);stroke:#000000;stroke-width:0.6804;stroke-miterlimit:10;}
	.st3{fill:url(#SVGID_3_);stroke:#000000;stroke-width:0.6337;stroke-miterlimit:10;}
	.st4{fill:url(#SVGID_4_);stroke:#000000;stroke-width:0.6337;stroke-miterlimit:10;}
	.st5{fill:url(#SVGID_5_);stroke:#000000;stroke-width:0.6337;stroke-miterlimit:10;}
	.st6{fill:url(#SVGID_6_);stroke:#000000;stroke-width:0.6712;stroke-miterlimit:10;}
	.st7{fill:url(#SVGID_7_);stroke:#000000;stroke-width:0.5751;stroke-miterlimit:10;}
</style>
<pattern  x="107.7" y="189.6" width="316.3" height="316.3" patternUnits="userSpaceOnUse" id="New_Pattern" viewBox="0 -395.4 316.3 316.3" style="overflow:visible;">
	<g>
		<rect y="-395.4" class="st0" width="316.3" height="316.3"/>
		
			<image style="overflow:visible;" width="860" height="430" xlink:href="mining-farm.jpg"  transform="matrix(0.3678 0 0 0.3678 0 -158.1617)">
		</image>
		
			<image style="overflow:visible;" width="860" height="430" xlink:href="mining-farm.jpg"  transform="matrix(0.3678 0 0 0.3678 0 -316.3234)">
		</image>
		
			<image style="overflow:visible;" width="860" height="430" xlink:href="mining-farm.jpg"  transform="matrix(0.3678 0 0 0.3678 0 -474.4851)">
		</image>
	</g>
</pattern>
<pattern  id="SVGID_1_" xlink:href="#New_Pattern" patternTransform="matrix(1 0 0 1 0 7.1712)">
</pattern>
<path class="st1" d="M335.5,93c-5.1-4.5-11.5-7.7-18.6-9.3c0,0,12.1-5.8,15.7-13.8c0,0,7-13.1-0.3-24.9c-2.2-3.6-4-7-7.4-10
	c-5.2-4.6-12.5-6.9-19.5-7.9c-1.4-0.2-17-1.1-17-0.6V5.9h-18.2v20.5h-16V5.9h-18.6v20.9l-36.8-0.3v18.3c0-0.4,13.5-0.1,14.8,0.2
	c3.9,0.7,7.8,3,8.7,6.7c0.6,2.2,0.1,5,0.1,7.4v63.1c0,4.6-4.4,7.5-9,8.5c-1.7,0.3-14.7,0.3-14.7,0.2V149h37v20.2H255V149h14.8v20.2
	h18.9v-20.1c0,0,20.4,0,29.3-3c0,0,13.1-1.3,21-14.1c1.2-1.7,1.9-3.5,2.6-5.3c1.9-7.3,4.7-17.3,1.3-24.2
	C341.1,99,338.6,95.8,335.5,93z M254.4,44.3c10,0,20.1,0,30.1,0c11.3,0,15.3,14.3,12.8,22.4c-1.2,4.2-4.2,7.9-8.3,10.5
	c-3.1,1.8-6.7,1.3-10.2,1.3h-24.4V44.3z M308,112.8c-1.3,9.6-9.1,16.4-19.8,17.6c-7,0.7-14.4,0.1-21.4,0.1h-12.3V95.1h22.3
	c10.2,0,21.1,0,27.6,8.6C306.2,105.9,308.4,109.9,308,112.8z"/>
<pattern  id="SVGID_2_" xlink:href="#New_Pattern" patternTransform="matrix(1 0 0 1 0 -0.3386)">
</pattern>
<polygon class="st2" points="576.1,35.8 576,21.5 467.9,21.5 467.9,39.3 545.1,39.3 467.3,138.9 467.4,153.6 578.7,153.6 
	578.7,135.8 498.3,135.8 "/>
<pattern  id="SVGID_3_" xlink:href="#New_Pattern" patternTransform="matrix(1 0 0 1 0 -0.7978)">
</pattern>
<path class="st3" d="M754.7,22.6L709,152.5l24,0l9.6-30.2l43.9,0l9.5,30.2l23.9,0L775.1,22.6L754.7,22.6z M748.4,104l16.3-50.9
	l15.9,50.9L748.4,104z"/>
<pattern  id="SVGID_4_" xlink:href="#New_Pattern" patternTransform="matrix(1 0 0 1 0 -0.7978)">
</pattern>
<path class="st4" d="M635.2,22.6l-45.6,129.9l24,0l9.6-30.2l43.9,0l9.5,30.2l23.9,0L655.6,22.6L635.2,22.6z M629,104l16.3-50.9
	l15.9,50.9L629,104z"/>
<pattern  id="SVGID_5_" xlink:href="#New_Pattern" patternTransform="matrix(1 0 0 1 0 -0.7978)">
</pattern>
<path class="st5" d="M391.1,22.6l-45.6,129.9l24,0l9.6-30.2l43.9,0l9.5,30.2l23.9,0L411.6,22.6L391.1,22.6z M384.9,104l16.3-50.9
	l15.9,50.9L384.9,104z"/>
<pattern  id="SVGID_6_" xlink:href="#New_Pattern" patternTransform="matrix(1 0 0 1 0 -0.1415)">
</pattern>
<path class="st6" d="M906.1,96.8c4.3-1.6,8.2-3.4,11.8-5.5c3.6-2.2,6.7-4.7,9.3-7.6s4.5-6,6-9.6c1.3-3.6,2.1-7.6,2.1-11.9
	c0-6.5-1.3-12.2-4.2-17c-2.7-4.8-6.6-8.8-11.7-12.1s-11.1-5.7-17.9-7.2c-6.9-1.7-14.4-2.5-22.6-2.5h-50.4v128.5h26.3v-50.1h26.8
	l30.2,50.3h28.1v-1.1L906.1,96.8z M900.6,78.7c-2.5,1.9-5.8,3.4-9.4,4.3c-3.7,1-7.8,1.4-12.1,1.4h-24.2l0.1-44.2H879
	c4.5,0.1,8.7,0.6,12.4,1.6c3.7,1.1,6.9,2.4,9.4,4.3c2.5,1.9,4.6,4.2,6,7c1.3,2.8,2.1,5.9,2.1,9.5c0,3.5-0.7,6.6-2.2,9.3
	C905.3,74.6,903.3,76.9,900.6,78.7z"/>
<pattern  id="SVGID_7_" xlink:href="#New_Pattern" patternTransform="matrix(1 0 0 1 0 -4.2978)">
</pattern>
<path class="st7" d="M174.1,68.4c5.9,0,10.6-4.5,10.6-10.1s-4.7-10.1-10.6-10.1h-33.5V10.4c0-5.6-4.7-10.1-10.6-10.1
	c-5.9,0-10.6,4.5-10.6,10.1v37.9H78.2V10.4c0-5.6-4.7-10.1-10.6-10.1S56.9,4.8,56.9,10.4v37.9h-46C5,48.3,0.3,52.8,0.3,58.4
	S5,68.4,10.9,68.4h46v36.9h-46c-5.9,0-10.6,4.5-10.6,10.1s4.7,10.1,10.6,10.1h46v39.3c0,5.6,4.7,10.1,10.6,10.1s10.6-4.5,10.6-10.1
	v-39.3h41.1v39.3c0,5.6,4.7,10.1,10.6,10.1c5.9,0,10.6-4.5,10.6-10.1v-39.3h33.5c5.9,0,10.6-4.5,10.6-10.1s-4.7-10.1-10.6-10.1
	h-33.5V68.4H174.1z M119.4,105.3H78.2V68.4h41.1V105.3z"/>
</svg>
