<?xml version="1.0" encoding="utf-8"?>
<!-- Generator: Adobe Illustrator 23.0.1, SVG Export Plug-In . SVG Version: 6.00 Build 0)  -->
<svg version="1.1" id="Layer_1" xmlns="http://www.w3.org/2000/svg" xmlns:xlink="http://www.w3.org/1999/xlink" x="0px" y="0px"
	 viewBox="0 0 221.2 52" style="enable-background:new 0 0 221.2 52;" xml:space="preserve">
<style type="text/css">
	.st0{fill:#EAAE0D;stroke:#000000;stroke-width:0.5;}
	.st1{fill:url(#Path_91_1_);stroke:#000000;stroke-width:0.5;stroke-miterlimit:10;}
	.st2{fill:#4E4E4E;stroke:#000000;stroke-width:0.5;stroke-miterlimit:10;}
	.st3{font-family:'RobotoMonoForPowerline-Medium';}
	.st4{font-size:37.1467px;}
</style>
<g id="Group_370" transform="translate(-376.5 -1077.033)">
	<path id="Path_92" class="st0" d="M432.2,1098.7L432.2,1098.7c0-1.3-1-2.3-2.3-2.3h-35.7c-1.3,0-2.3,1-2.3,2.3l0,0
		c0,1.3,1,2.3,2.3,2.3h35.7C431.2,1101,432.2,1099.9,432.2,1098.7z"/>
	<path id="Path_93" class="st0" d="M432.2,1111.5L432.2,1111.5c0-1.3-1-2.3-2.3-2.3h-35.7c-1.3,0-2.3,1-2.3,2.3l0,0
		c0,1.3,1,2.3,2.3,2.3h35.7C431.2,1113.8,432.2,1112.8,432.2,1111.5z"/>
	<g id="Layer_1-2_1_" transform="translate(431.524 1081.254)">
		
			<linearGradient id="Path_91_1_" gradientUnits="userSpaceOnUse" x1="-1755.3749" y1="24.142" x2="-1754.5112" y2="24.142" gradientTransform="matrix(33.617 0 0 43.414 59017.9375 -1026.0029)">
			<stop  offset="0" style="stop-color:#E9A300"/>
			<stop  offset="1" style="stop-color:#FFE300"/>
		</linearGradient>
		<path id="Path_91" class="st1" d="M36.2,25.5c-0.4-0.8-0.9-1.6-1.5-2.2c-1-1-2.3-1.8-3.7-2.1c0,0,2.4-1.3,3.1-3.2
			c0.8-1.8,0.8-3.9-0.1-5.7c-0.4-0.8-0.9-1.6-1.5-2.3c-1.1-1-2.4-1.6-3.9-1.8C27.6,8,26.5,8,25.3,8V3.3h-3.6V8h-3.2V3.3h-3.7v4.8
			L7.5,8v4.2c1-0.1,2-0.1,3,0c0.8,0.1,1.5,0.7,1.7,1.5c0.1,0.6,0.1,1.1,0,1.7V30c-0.1,1-0.8,1.8-1.8,1.9C10.1,32,7.5,32,7.5,32v4.1
			h7.4v4.7h3.8v-4.6h3v4.7h3.8v-4.6c0,0,4.1,0,5.9-0.7c1.8-0.4,3.4-1.6,4.2-3.2c0.2-0.4,0.4-0.8,0.5-1.2
			C36.3,29.4,36.9,27.1,36.2,25.5z M24.6,12.1c2.2,0,3.1,3.3,2.6,5.1c-0.2,1-0.8,1.8-1.6,2.4c-0.6,0.3-1.4,0.4-2.1,0.3h-4.9V12
			C20.6,12.1,22.6,12.1,24.6,12.1z M29.2,27.8c-0.2,2.1-1.8,3.8-3.9,4c-1.4,0.1-2.8,0.1-4.3,0h-2.5v-8.1H23c2.1,0,4.2,0,5.5,2
			C29,26.4,29.2,27.1,29.2,27.8L29.2,27.8z"/>
	</g>
	<text transform="matrix(1 0 0 1 469.3745 1116.3181)" class="st2 st3 st4">AZAAR</text>
	<path id="Path_94" class="st0" d="M406.6,1124.6L406.6,1124.6c1.3,0,2.3-1,2.3-2.3v-35.5c0-1.3-1.1-2.3-2.3-2.3l0,0
		c-1.3,0-2.3,1-2.3,2.3v35.5C404.3,1123.5,405.3,1124.6,406.6,1124.6z"/>
	<path id="Path_95" class="st0" d="M420.3,1124.6L420.3,1124.6c1.3,0,2.3-1,2.3-2.3v-35.5c0-1.3-1.1-2.3-2.3-2.3l0,0
		c-1.3,0-2.3,1-2.3,2.3v35.5C417.9,1123.5,419,1124.6,420.3,1124.6z"/>
</g>
</svg>
