<?xml version="1.0" encoding="utf-8"?>
<!-- Generator: Adobe Illustrator 23.0.6, SVG Export Plug-In . SVG Version: 6.00 Build 0)  -->
<svg version="1.1" id="Layer_1" xmlns="http://www.w3.org/2000/svg" xmlns:xlink="http://www.w3.org/1999/xlink" x="0px" y="0px"
	 viewBox="0 0 745.8 158.5" style="enable-background:new 0 0 745.8 158.5;" xml:space="preserve">
<style type="text/css">
	.st0{fill:none;stroke:#000000;stroke-width:0.5;stroke-miterlimit:10;}
</style>
<path class="st0" d="M293.5,86.8c-1.4-3.2-3.3-6.1-5.7-8.6c-3.9-4-8.9-6.9-14.3-8.3c0,0,9.3-5.2,12.1-12.3c0,0,5.4-11.7-0.2-22.3
	c-1.7-3.2-3.1-6.3-5.7-8.9c-4-4.1-9.6-6.2-15-7.1c-1.1-0.2-13.1-1-13.1-0.5V0.2h-14v18.3h-12.3V0.2h-14.3V19l-28.4-0.3v16.4
	c0-0.4,10.4-0.1,11.4,0.2c3,0.6,6,2.7,6.7,6c0.5,2,0.1,4.5,0.1,6.6v56.4c0,4.1-3.4,6.7-6.9,7.6c-1.3,0.3-11.3,0.3-11.3,0.2v16.2
	h28.5v18.1h14.6v-18.1h11.4v18.1h14.6v-18c0,0,15.7,0,22.6-2.7c0,0,10.1-1.2,16.2-12.6c0.9-1.5,1.5-3.1,2-4.7
	C294,101.8,296,92.8,293.5,86.8z M248.4,34.7c8.7,0,11.8,12.8,9.9,20c-0.9,3.8-3.2,7.1-6.4,9.4c-2.4,1.6-5.2,1.2-7.9,1.2h-18.8V34.7
	C232.9,34.7,240.8,34.7,248.4,34.7z M266.5,95.8c-1,8.6-7,14.7-15.3,15.7c-5.4,0.6-11.1,0.1-16.5,0.1h-9.5V80.1h17.2
	c7.9,0,16.3,0,21.3,7.7C265.1,89.8,266.9,93.2,266.5,95.8z"/>
<path class="st0" d="M362.5,105.9h-33.3l-7.3,24.8h-18.2l34.6-106.6h15.5l34,106.6h-18.1L362.5,105.9z M333.6,90.9h24.5L346,49.1
	L333.6,90.9z"/>
<path class="st0" d="M418,116.3h53.8v14.4h-74.5l-0.1-11.9l52.1-80.3h-51.7V24.2h72.4l0.1,11.6L418,116.3z"/>
<path class="st0" d="M542.5,105.9h-33.3l-7.3,24.8h-18.2l34.6-106.6h15.5l34,106.6h-18.1L542.5,105.9z M513.7,90.9h24.5l-12.1-41.8
	L513.7,90.9z"/>
<path class="st0" d="M632.5,105.9h-33.3l-7.3,24.8h-18.2l34.6-106.6h15.5l34,106.6h-18.1L632.5,105.9z M603.7,90.9h24.5l-12.1-41.8
	L603.7,90.9z"/>
<g>
	<defs>
		<path id="SVGID_1_" d="M699.3,90.9h-17.9v41.6h-17.6V25.9h33.7c5.5,0,10.5,0.7,15.1,2.1c4.6,1.3,8.6,3.3,12,6s6,6,7.8,10
			c1.9,4,2.8,8.7,2.8,14.1c0,3.6-0.5,6.9-1.4,9.9c-1,3-2.3,5.6-4,8c-1.7,2.4-3.8,4.5-6.2,6.3s-5,3.3-7.9,4.6l22.6,44.8v0.9h-18.8
			L699.3,90.9z M681.5,76.7h16.2c2.9,0,5.6-0.4,8.1-1.2c2.4-0.8,4.6-2,6.3-3.6c1.8-1.5,3.2-3.4,4.1-5.6c1-2.2,1.5-4.8,1.5-7.7
			c0-3-0.5-5.6-1.4-7.9c-0.9-2.3-2.3-4.2-4-5.8s-3.8-2.7-6.3-3.6c-2.5-0.8-5.3-1.2-8.3-1.3h-16.1L681.5,76.7L681.5,76.7z"/>
	</defs>
	<clipPath id="SVGID_2_">
		<use xlink:href="#SVGID_1_"  style="overflow:visible;"/>
	</clipPath>
	<g style="clip-path:url(#SVGID_2_);">
		
			<image style="overflow:visible;" width="860" height="430" xlink:href="mining-farm.jpg"  transform="matrix(0.4765 0 0 0.4765 563.3226 -25.7417)">
		</image>
	</g>
</g>
<path class="st0" d="M147.2,96.2h-28.3v-33h28.3c5,0,9-4,9-9s-4-9-9-9h-28.3V11.2c0-5-4-9-9-9s-9,4-9,9v33.9H66.2V11.2c0-5-4-9-9-9
	s-9,4-9,9v33.9H9.2c-5,0-9,4-9,9s4,9,9,9h38.9v33H9.2c-5,0-9,4-9,9s4,9,9,9h38.9v35.1c0,5,4,9,9,9s9-4,9-9v-35.1h34.8v35.1
	c0,5,4,9,9,9s9-4,9-9v-35.1h28.3c5,0,9-4,9-9S152.2,96.2,147.2,96.2z M66.2,96.2v-33h34.8v33H66.2z"/>
</svg>
