<svg xmlns="http://www.w3.org/2000/svg" viewBox="0 0 950 735"><defs><style>.a,.e{fill:none;stroke-miterlimit:10;}.a{stroke:#666;}.b{fill:url(#a);}.c{fill:#4072c6;}.d{fill:red;}.e{stroke:gray;}.f{fill:#ccc;font-size:12px;font-family:ArialMT, Arial;}.g,.h{fill:#fff;font-family:Helvetica-Light, Helvetica;font-weight:300;}.g{font-size:14px;}.h{font-size:26px;}</style><radialGradient id="a" cx="474.988" cy="367.503" r="395.376" gradientTransform="matrix(0.774, 0, 0, -0.364, 107.497, 501.245)" gradientUnits="userSpaceOnUse"><stop offset="0.07" stop-color="#505050"/><stop offset="0.87" stop-color="#2f2f2f"/></radialGradient></defs><g transform="translate(0)"><line class="a" x1="0.123" y2="600.387" transform="translate(159.806 75.21)"/><line class="a" y2="600.387" transform="translate(204.574 75.21)"/><rect class="b" width="950" height="735"/><line class="a" x1="0.123" y2="600.387" transform="translate(157.46 75.21)"/><g transform="translate(248.285 75.21)"><line class="a" x1="0.123" y2="600.387" transform="translate(683.56)"/><line class="a" x1="0.123" y2="600.387" transform="translate(637.99)"/><line class="a" x1="0.123" y2="600.387" transform="translate(592.419)"/><line class="a" x1="0.123" y2="600.387" transform="translate(546.848)"/><line class="a" x1="0.123" y2="600.387" transform="translate(501.278)"/><line class="a" x1="0.123" y2="600.387" transform="translate(455.707)"/><line class="a" x1="0.123" y2="600.387" transform="translate(410.136)"/><line class="a" x1="0.123" y2="600.387" transform="translate(364.566)"/><line class="a" x1="0.123" y2="600.387" transform="translate(318.995)"/><line class="a" x1="0.123" y2="600.387" transform="translate(273.424)"/><line class="a" x1="0.123" y2="600.387" transform="translate(227.853)"/><line class="a" x1="0.123" y2="600.387" transform="translate(182.283)"/><line class="a" x1="0.123" y2="600.387" transform="translate(136.712)"/><line class="a" x1="0.123" y2="600.387" transform="translate(91.141)"/><line class="a" x1="0.123" y2="600.387" transform="translate(45.571)"/><line class="a" x1="0.123" y2="600.387"/></g><g transform="translate(202.468 75.21)"><line class="a" x1="0.123" y2="600.387" transform="translate(683.56)"/><line class="a" x1="0.123" y2="600.387" transform="translate(637.99)"/><line class="a" x1="0.123" y2="600.387" transform="translate(592.419)"/><line class="a" x1="0.123" y2="600.387" transform="translate(546.848)"/><line class="a" x1="0.123" y2="600.387" transform="translate(501.278)"/><line class="a" x1="0.123" y2="600.387" transform="translate(455.707)"/><line class="a" x1="0.123" y2="600.387" transform="translate(410.136)"/><line class="a" x1="0.123" y2="600.387" transform="translate(364.566)"/><line class="a" x1="0.123" y2="600.387" transform="translate(318.995)"/><line class="a" x1="0.123" y2="600.387" transform="translate(273.424)"/><line class="a" x1="0.123" y2="600.387" transform="translate(227.853)"/><line class="a" x1="0.123" y2="600.387" transform="translate(182.283)"/><line class="a" x1="0.123" y2="600.387" transform="translate(136.712)"/><line class="a" x1="0.123" y2="600.387" transform="translate(91.141)"/><line class="a" x1="0.123" y2="600.387" transform="translate(45.571)"/><line class="a" x1="0.123" y2="600.387"/></g><rect class="c" width="251.689" height="9.139" transform="translate(114.112 77.063)"/><rect class="c" width="317.142" height="9.015" transform="translate(114.112 99.91)"/><rect class="c" width="525.236" height="9.015" transform="translate(114.112 122.633)"/><rect class="c" width="295.777" height="9.015" transform="translate(114.112 146.554)"/><rect class="c" width="478.678" height="9.015" transform="translate(114.112 169.253)"/><rect class="c" width="272.436" height="9.015" transform="translate(114.112 192.074)"/><rect class="c" width="123.621" height="9.139" transform="translate(114.112 239.692)"/><rect class="c" width="500.66" height="9.139" transform="translate(114.112 286.323)"/><rect class="c" width="524.619" height="9.139" transform="translate(114.112 262.391)"/><rect class="c" width="296.271" height="9.139" transform="translate(114.112 356.763)"/><rect class="c" width="363.454" height="9.139" transform="translate(114.112 379.708)"/><rect class="c" width="363.454" height="9.139" transform="translate(114.112 334.187)"/><rect class="c" width="250.454" height="9.139" transform="translate(114.112 403.023)"/><rect class="c" width="502.019" height="9.139" transform="translate(114.112 496.778)"/><rect class="c" width="614.772" height="9.139" transform="translate(114.112 472.846)"/><rect class="c" width="99.045" height="9.139" transform="translate(114.112 449.901)"/><rect class="c" width="363.578" height="9.139" transform="translate(114.112 426.462)"/><rect class="c" width="433.601" height="9.139" transform="translate(114.112 519.477)"/><rect class="c" width="386.919" height="9.139" transform="translate(114.112 542.916)"/><rect class="c" width="363.578" height="9.139" transform="translate(114.112 566.848)"/><rect class="c" width="296.271" height="9.139" transform="translate(114.112 590.014)"/><rect class="c" width="749.563" height="9.139" transform="translate(114.112 611.749)"/><rect class="c" width="638.113" height="9.139" transform="translate(114.112 660.037)"/><rect class="c" width="683.684" height="9.139" transform="translate(114.112 637.313)"/><rect class="d" width="84.349" height="9.139" transform="translate(114.112 309.515)"/><rect class="c" width="592.543" height="9.139" transform="translate(114.112 216.13)"/><line class="e" x1="0.123" y2="600.387" transform="translate(113.494 75.21)"/><g transform="translate(11.474 76.452)"><text class="f" transform="translate(0 32.55)"><tspan x="0" y="0">Czech Republic</tspan></text><text class="f" transform="translate(28.479 11)"><tspan x="0" y="0">Canada</tspan></text><text class="f" transform="translate(26.552 54.113)"><tspan x="0" y="0">Spain</tspan></text><text class="f" transform="translate(7.373 79.368)"><tspan x="0" y="0">United States</tspan></text><text class="f" transform="translate(27.157 102.784)"><tspan x="0" y="0">Sweden</tspan></text><text class="f" transform="translate(24.811 125.855)"><tspan x="0" y="0">Romania</tspan></text><text class="f" transform="translate(25.576 149.066)"><tspan x="0" y="0">Portugal</tspan></text><text class="f" transform="translate(35.641 171.684)"><tspan x="0" y="0">India</tspan></text><text class="f" transform="translate(29.924 194.302)"><tspan x="0" y="0">Austria</tspan></text><text class="f" transform="translate(33.097 219.079)"><tspan x="0" y="0">Japan</tspan></text><text class="f" transform="translate(36.444 241.549)"><tspan x="0" y="0">Ours</tspan></text><text class="f" transform="translate(7.373 264.007)"><tspan x="0" y="0">Netherlands</tspan></text><text class="f" transform="translate(33.888 287.785)"><tspan x="0" y="0">Malta</tspan></text><text class="f" transform="translate(7.373 312.389)"><tspan x="0" y="0">Luxembourg</tspan></text><text class="f" transform="translate(23.329 334.415)"><tspan x="0" y="0">Lithuania</tspan></text><text class="f" transform="translate(32.9 357.268)"><tspan x="0" y="0">Latvia</tspan></text><text class="f" transform="translate(33.456 380.712)"><tspan x="0" y="0">China</tspan></text><text class="f" transform="translate(37.741 403.738)"><tspan x="0" y="0">Italy</tspan></text><text class="f" transform="translate(7.373 426.775)"><tspan x="0" y="0">Great Britan</tspan></text><text class="f" transform="translate(30.047 451.539)"><tspan x="0" y="0">Greece</tspan></text><text class="f" transform="translate(31.023 476.316)"><tspan x="0" y="0">France</tspan></text><text class="f" transform="translate(28.824 499.721)"><tspan x="0" y="0">Finland</tspan></text><text class="f" transform="translate(15.24 524.531)"><tspan x="0" y="0">South Korea</tspan></text><text class="f" transform="translate(23.897 543.562)"><tspan x="0" y="0">Germany</tspan></text><text class="f" transform="translate(23.699 568.768)"><tspan x="0" y="0">Denmark</tspan></text><text class="f" transform="translate(26.33 591.517)"><tspan x="0" y="0">Belgium</tspan></text></g><g transform="translate(108.358 682.57)"><text class="f" transform="translate(0 11)"><tspan x="0" y="0">0</tspan></text><text class="f" transform="translate(45.669 11)"><tspan x="0" y="0">2</tspan></text><text class="f" transform="translate(91.351 11)"><tspan x="0" y="0">4</tspan></text><text class="f" transform="translate(137.021 11)"><tspan x="0" y="0">6</tspan></text><text class="f" transform="translate(181.991 11)"><tspan x="0" y="0">8</tspan></text><text class="f" transform="translate(224.01 11)"><tspan x="0" y="0">10</tspan></text><text class="f" transform="translate(269.516 11)"><tspan x="0" y="0">12</tspan></text><text class="f" transform="translate(315.009 11)"><tspan x="0" y="0">14</tspan></text><text class="f" transform="translate(360.515 11)"><tspan x="0" y="0">16</tspan></text><text class="f" transform="translate(406.008 11)"><tspan x="0" y="0">18</tspan></text><text class="f" transform="translate(451.502 11)"><tspan x="0" y="0">20</tspan></text><text class="f" transform="translate(497.008 11)"><tspan x="0" y="0">22</tspan></text><text class="f" transform="translate(542.501 11)"><tspan x="0" y="0">24</tspan></text><text class="f" transform="translate(587.994 11)"><tspan x="0" y="0">26</tspan></text><text class="f" transform="translate(633.5 11)"><tspan x="0" y="0">28</tspan></text><text class="f" transform="translate(678.465 11)"><tspan x="0" y="0">30</tspan></text><text class="f" transform="translate(724.135 11)"><tspan x="0" y="0">32</tspan></text><text class="f" transform="translate(769.817 11)"><tspan x="0" y="0">34</tspan></text><text class="f" transform="translate(815.486 11)"><tspan x="0" y="0">36</tspan></text></g><text class="g" transform="translate(398.666 720.534)"><tspan x="0" y="0">CENT per KWh</tspan></text><text class="h" transform="translate(351.637 38.991)"><tspan x="0" y="0">Electricity Pricing</tspan></text></g></svg>