<?xml version="1.0" encoding="utf-8"?>
<!-- Generator: Adobe Illustrator 23.0.6, SVG Export Plug-In . SVG Version: 6.00 Build 0)  -->
<svg version="1.1" id="Layer_1" xmlns="http://www.w3.org/2000/svg" xmlns:xlink="http://www.w3.org/1999/xlink" x="0px" y="0px"
	 viewBox="0 0 53 56.2" style="enable-background:new 0 0 53 56.2;" xml:space="preserve">
<style type="text/css">
	.st0{fill:#404040;}
	.st1{fill:none;stroke:#F89A20;stroke-width:2;stroke-miterlimit:10;}
	.st2{fill:none;stroke:#F89A20;stroke-width:3;stroke-miterlimit:10;}
	.st3{fill:#F89A20;}
</style>
<title>8Asset 4</title>
<path class="st0" d="M26.5,0.7c0,0-13.1,12.9-26,12.9c0,34.4,24.4,42.1,24.4,42.1S52.5,48,52.5,13.6C39.6,13.6,26.5,0.7,26.5,0.7z"
	/>
<path class="st1" d="M21.5,27.7v-6.1c0.1-2.2,1.9-3.9,4.1-3.9h0.8c2.2-0.1,4,1.7,4.1,3.9v6.1"/>
<g>
	<path class="st2" d="M20.9,39.7h10.1c1.3,0,2.4-1.1,2.4-2.4v-7.1c0-1.3-1.1-2.4-2.4-2.4c0,0,0,0,0,0H20.9c-1.3,0-2.4,1.1-2.4,2.4
		c0,0,0,0,0,0v7.1C18.5,38.6,19.6,39.7,20.9,39.7z"/>
</g>
<path class="st3" d="M24.9,32.7h1.9c0.7,0,1.2,0.5,1.2,1.2v0.6c0,0.7-0.5,1.2-1.2,1.2h-1.9c-0.7,0-1.2-0.5-1.2-1.2v-0.6
	C23.7,33.2,24.2,32.7,24.9,32.7z"/>
</svg>
